<svg width="620" height="184" viewBox="0 0 620 184" fill="none" xmlns="http://www.w3.org/2000/svg">
<rect width="620" height="184" rx="92" fill="black"/>
<path d="M529 142.964C529 144.725 528.653 146.469 527.978 148.096C527.304 149.723 526.315 151.201 525.069 152.446C523.822 153.69 522.343 154.677 520.715 155.35C519.087 156.023 517.342 156.368 515.58 156.366H76.4213C72.8619 156.37 69.4467 154.96 66.9269 152.447C64.4071 149.934 62.9889 146.523 62.9843 142.964V36.0877C62.9889 32.5276 64.4065 29.1149 66.9258 26.5989C69.4452 24.0828 72.8603 22.6691 76.4213 22.6682H515.577C517.34 22.6682 519.085 23.0153 520.713 23.6898C522.342 24.3642 523.821 25.3527 525.067 26.5989C526.313 27.8451 527.302 29.3244 527.976 30.9525C528.65 32.5807 528.997 34.3256 528.997 36.0877L529 142.964Z" fill="white"/>
<path d="M529 142.964C529 144.725 528.653 146.469 527.978 148.096C527.304 149.723 526.315 151.201 525.069 152.446C523.822 153.69 522.343 154.677 520.715 155.35C519.087 156.023 517.342 156.368 515.58 156.366H76.4213C72.8619 156.37 69.4467 154.96 66.9269 152.447C64.4071 149.934 62.9889 146.523 62.9843 142.964V36.0877C62.9889 32.5276 64.4065 29.1149 66.9258 26.5989C69.4452 24.0828 72.8603 22.6691 76.4213 22.6682H515.577C517.34 22.6682 519.085 23.0153 520.713 23.6898C522.342 24.3642 523.821 25.3527 525.067 26.5989C526.313 27.8451 527.302 29.3244 527.976 30.9525C528.65 32.5807 528.997 34.3256 528.997 36.0877L529 142.964Z" fill="black"/>
<path d="M165.321 88.7824C165.22 77.5045 174.558 72.0177 174.985 71.7623C169.697 64.0535 161.499 63.0002 158.619 62.9162C151.734 62.1919 145.056 67.0348 141.548 67.0348C137.971 67.0348 132.571 62.9862 126.75 63.1052C119.26 63.2207 112.252 67.5562 108.409 74.2887C100.478 88.0161 106.393 108.189 113.992 119.285C117.793 124.723 122.235 130.787 128.048 130.574C133.736 130.343 135.861 126.952 142.725 126.952C149.525 126.952 151.52 130.574 157.45 130.437C163.554 130.343 167.397 124.978 171.065 119.495C175.458 113.27 177.222 107.132 177.292 106.817C177.152 106.768 165.44 102.296 165.321 88.7824ZM154.121 55.6169C157.18 51.7922 159.273 46.5889 158.692 41.3086C154.264 41.5045 148.727 44.3704 145.539 48.1111C142.718 51.4073 140.197 56.8101 140.848 61.891C145.822 62.2619 150.929 59.382 154.121 55.6169Z" fill="white"/>
<path d="M247.704 129.793H239.755L235.401 116.115H220.267L216.119 129.793H208.38L223.378 83.2257H232.64L247.704 129.793ZM234.089 110.376L230.151 98.2163C229.734 96.9741 228.95 94.0488 227.802 89.4438H227.662C227.2 91.4244 226.462 94.3497 225.45 98.2163L221.579 110.376H234.089ZM286.199 112.591C286.199 118.302 284.648 122.816 281.544 126.13C278.764 129.079 275.31 130.553 271.19 130.553C266.741 130.553 263.542 128.967 261.6 125.79V143.409H254.137V107.251C254.137 103.665 254.043 99.987 253.861 96.2148H260.424L260.84 101.537H260.98C263.469 97.527 267.245 95.522 272.314 95.522C276.276 95.522 279.583 97.0861 282.23 100.218C284.872 103.357 286.199 107.479 286.199 112.591ZM278.596 112.864C278.596 109.596 277.861 106.901 276.384 104.777C274.771 102.569 272.604 101.464 269.888 101.464C268.047 101.464 266.374 102.079 264.879 103.294C263.381 104.518 262.401 106.118 261.943 108.098C261.738 108.839 261.622 109.601 261.596 110.369V115.971C261.596 118.41 262.345 120.471 263.843 122.158C265.341 123.838 267.287 124.681 269.682 124.681C272.492 124.681 274.68 123.593 276.244 121.434C277.812 119.268 278.596 116.412 278.596 112.864ZM324.83 112.591C324.83 118.302 323.279 122.816 320.175 126.13C317.392 129.079 313.941 130.553 309.818 130.553C305.369 130.553 302.17 128.967 300.227 125.79V143.409H292.765V107.251C292.765 103.665 292.671 99.987 292.489 96.2148H299.051L299.468 101.537H299.608C302.093 97.527 305.87 95.522 310.941 95.522C314.9 95.522 318.208 97.0861 320.861 100.218C323.5 103.357 324.83 107.479 324.83 112.591ZM317.224 112.864C317.224 109.596 316.485 106.901 315.008 104.777C313.395 102.569 311.235 101.464 308.519 101.464C306.678 101.464 305.005 102.079 303.503 103.294C302.005 104.518 301.029 106.118 300.57 108.098C300.343 109.022 300.22 109.774 300.22 110.369V115.971C300.22 118.41 300.973 120.471 302.464 122.158C303.962 123.834 305.908 124.681 308.309 124.681C311.123 124.681 313.311 123.593 314.872 121.434C316.44 119.268 317.224 116.412 317.224 112.864ZM368.022 116.731C368.022 120.695 366.635 123.918 363.881 126.406C360.85 129.121 356.618 130.483 351.193 130.483C346.181 130.483 342.163 129.517 339.131 127.582L340.857 121.364C344.13 123.302 347.724 124.268 351.637 124.268C354.452 124.268 356.639 123.631 358.2 122.368C359.765 121.101 360.556 119.408 360.556 117.294C360.556 115.401 359.901 113.816 358.617 112.525C357.325 111.237 355.19 110.037 352.19 108.934C344.035 105.894 339.954 101.446 339.954 95.5954C339.954 91.7743 341.396 88.646 344.273 86.2001C347.15 83.7576 350.965 82.5364 355.712 82.5364C359.95 82.5364 363.482 83.2747 366.285 84.7479L364.413 90.8295C361.774 89.4018 358.795 88.688 355.463 88.688C352.831 88.688 350.766 89.3353 349.289 90.6231C348.046 91.7743 347.416 93.1775 347.416 94.8431C347.416 96.6802 348.134 98.2059 349.562 99.4026C350.801 100.505 353.062 101.705 356.331 102.993C360.342 104.609 363.289 106.492 365.176 108.655C367.076 110.817 368.022 113.515 368.022 116.731ZM392.757 101.814H384.532V118.116C384.532 122.263 385.981 124.331 388.886 124.331C390.219 124.331 391.325 124.219 392.201 123.985L392.407 129.65C390.937 130.199 389.001 130.476 386.604 130.476C383.657 130.476 381.354 129.576 379.691 127.778C378.035 125.979 377.202 122.966 377.202 118.725V101.8H372.302V96.2008H377.202V90.0527L384.532 87.8412V96.2008H392.757V101.814ZM429.796 112.728C429.796 117.889 428.318 122.126 425.371 125.44C422.288 128.852 418.186 130.553 413.072 130.553C408.137 130.553 404.213 128.918 401.287 125.654C398.361 122.382 396.898 118.26 396.898 113.287C396.898 108.084 398.41 103.822 401.423 100.508C404.444 97.1911 408.511 95.5325 413.625 95.5325C418.553 95.5325 422.512 97.1701 425.508 100.438C428.371 103.609 429.796 107.703 429.796 112.728ZM422.06 112.899C422.06 109.823 421.395 107.185 420.062 104.977C418.497 102.31 416.257 100.977 413.355 100.977C410.366 100.977 408.074 102.31 406.513 104.977C405.176 107.185 404.51 109.869 404.51 113.039C404.51 116.118 405.176 118.764 406.513 120.965C408.126 123.631 410.377 124.964 413.292 124.964C416.145 124.964 418.382 123.603 419.999 120.898C421.371 118.638 422.06 115.982 422.06 112.899ZM454.062 102.776C453.286 102.636 452.499 102.567 451.71 102.569C449.085 102.569 447.055 103.556 445.627 105.544C444.388 107.293 443.765 109.505 443.765 112.175V129.793H436.302V106.789C436.309 103.265 436.237 99.7399 436.085 96.2183H442.585L442.858 102.643H443.065C443.856 100.435 445.095 98.6538 446.796 97.3206C448.353 96.1556 450.245 95.5247 452.189 95.522C452.879 95.522 453.502 95.5709 454.055 95.6584L454.062 102.776ZM487.436 111.415C487.455 112.549 487.363 113.683 487.163 114.799H464.776C464.86 118.116 465.945 120.657 468.024 122.406C469.911 123.967 472.35 124.751 475.346 124.751C478.661 124.751 481.685 124.226 484.405 123.166L485.574 128.341C482.396 129.727 478.643 130.416 474.314 130.416C469.106 130.416 465.017 128.883 462.042 125.825C459.074 122.763 457.587 118.648 457.587 113.494C457.587 108.434 458.969 104.218 461.738 100.855C464.636 97.2646 468.553 95.4695 473.481 95.4695C478.321 95.4695 481.986 97.2646 484.475 100.855C486.445 103.7 487.436 107.227 487.436 111.415ZM480.32 109.48C480.373 107.265 479.883 105.358 478.871 103.745C477.579 101.667 475.591 100.631 472.928 100.631C470.488 100.631 468.5 101.642 466.988 103.672C465.745 105.285 465.007 107.223 464.779 109.473L480.32 109.48Z" fill="white"/>
<path d="M218.114 66.7619C216.038 66.7619 214.243 66.6604 212.748 66.489V43.975C214.839 43.6522 216.951 43.4931 219.066 43.4991C227.624 43.4991 231.565 47.7087 231.565 54.5707C231.565 62.4859 226.91 66.7619 218.114 66.7619ZM219.367 46.386C218.212 46.386 217.228 46.456 216.413 46.6239V63.7386C216.854 63.8086 217.701 63.8401 218.891 63.8401C224.498 63.8401 227.69 60.6488 227.69 54.6721C227.69 49.3428 224.803 46.386 219.367 46.386ZM243.847 66.9334C239.024 66.9334 235.898 63.3327 235.898 58.4443C235.898 53.3494 239.09 49.7172 244.12 49.7172C248.873 49.7172 252.069 53.1465 252.069 58.1748C252.069 63.3327 248.775 66.9334 243.847 66.9334ZM243.987 52.3976C241.337 52.3976 239.64 54.8751 239.64 58.3393C239.64 61.737 241.372 64.2145 243.952 64.2145C246.532 64.2145 248.264 61.5656 248.264 58.2693C248.264 54.9101 246.567 52.3976 243.987 52.3976ZM279.573 50.0567L274.41 66.559H271.047L268.908 59.3926C268.376 57.6396 267.934 55.8609 267.581 54.0633H267.511C267.242 55.8619 266.731 57.664 266.188 59.3926L263.913 66.559H260.515L255.657 50.0567H259.426L261.295 57.9019C261.736 59.7705 262.107 61.5341 262.415 63.1997H262.485C262.755 61.8105 263.196 60.0749 263.843 57.9369L266.188 50.0602H269.178L271.421 57.7689C271.964 59.6375 272.405 61.4711 272.748 63.2032H272.846C273.084 61.5061 273.458 59.704 273.966 57.7689L275.971 50.0602L279.573 50.0567ZM298.579 66.559H294.911V57.0831C294.911 54.1648 293.791 52.7021 291.582 52.7021C289.408 52.7021 287.914 54.5707 287.914 56.7437V66.559H284.246V54.7736C284.246 53.3144 284.211 51.7503 284.109 50.0532H287.336L287.508 52.6006H287.609C288.596 50.837 290.598 49.7172 292.842 49.7172C296.307 49.7172 298.582 52.3662 298.582 56.6772L298.579 66.559ZM308.694 66.559H305.022V42.4844H308.694V66.559ZM322.068 66.9334C317.248 66.9334 314.119 63.3327 314.119 58.4443C314.119 53.3494 317.311 49.7172 322.338 49.7172C327.094 49.7172 330.287 53.1465 330.287 58.1748C330.29 63.3327 326.993 66.9334 322.068 66.9334ZM322.205 52.3976C319.555 52.3976 317.858 54.8751 317.858 58.3393C317.858 61.737 319.594 64.2145 322.166 64.2145C324.749 64.2145 326.478 61.5656 326.478 58.2693C326.482 54.9101 324.788 52.3976 322.205 52.3976ZM344.749 66.559L344.483 64.6589H344.385C343.265 66.1881 341.63 66.9334 339.558 66.9334C336.601 66.9334 334.501 64.8618 334.501 62.0765C334.501 58.0034 338.032 55.8969 344.147 55.8969V55.5924C344.147 53.4194 342.996 52.3312 340.72 52.3312C339.093 52.3312 337.665 52.7406 336.408 53.5559L335.663 51.1449C337.189 50.1931 339.093 49.7172 341.329 49.7172C345.642 49.7172 347.819 51.9917 347.819 56.5442V62.6223C347.819 64.288 347.892 65.5792 348.057 66.5625L344.749 66.559ZM344.245 58.3393C340.171 58.3393 338.127 59.3261 338.127 61.6671C338.127 63.3992 339.18 64.246 340.643 64.246C342.509 64.246 344.245 62.8218 344.245 60.8867V58.3393ZM365.631 66.559L365.459 63.9101H365.358C364.304 65.9116 362.533 66.9334 360.059 66.9334C356.079 66.9334 353.132 63.4342 353.132 58.5108C353.132 53.3494 356.188 49.7138 360.36 49.7138C362.568 49.7138 364.133 50.4591 365.015 51.9567H365.088V42.4844H368.76V62.1115C368.76 63.7071 368.799 65.2013 368.897 66.559H365.631ZM365.088 56.8486C365.088 54.5392 363.559 52.5691 361.224 52.5691C358.505 52.5691 356.842 54.9801 356.842 58.3743C356.842 61.7021 358.568 63.98 361.151 63.98C363.457 63.98 365.088 61.975 365.088 59.599V56.8486ZM392.039 66.9334C387.22 66.9334 384.094 63.3327 384.094 58.4443C384.094 53.3494 387.286 49.7172 392.313 49.7172C397.069 49.7172 400.261 53.1465 400.261 58.1748C400.265 63.3327 396.971 66.9334 392.039 66.9334ZM392.176 52.3976C389.53 52.3976 387.832 54.8751 387.832 58.3393C387.832 61.737 389.565 64.2145 392.141 64.2145C394.724 64.2145 396.453 61.5656 396.453 58.2693C396.46 54.9101 394.763 52.3976 392.176 52.3976ZM419.988 66.559H416.316V57.0831C416.316 54.1648 415.196 52.7021 412.988 52.7021C410.814 52.7021 409.323 54.5707 409.323 56.7437V66.559H405.652V54.7736C405.652 53.3144 405.617 51.7503 405.515 50.0532H408.742L408.914 52.6006H409.015C409.999 50.837 412.004 49.7138 414.244 49.7138C417.71 49.7138 419.988 52.3627 419.988 56.6737V66.559ZM444.668 52.8071H440.632V60.8203C440.632 62.8603 441.339 63.8786 442.767 63.8786C443.415 63.8786 443.957 63.8086 444.395 63.7071L444.496 66.4925C443.786 66.7654 442.834 66.9019 441.65 66.9019C438.759 66.9019 437.03 65.3062 437.03 61.1282V52.8071H434.622V50.0567H437.03V47.0334L440.632 45.9451V50.0532H444.668V52.8071ZM464.086 66.559H460.422V57.1531C460.422 54.1997 459.305 52.7056 457.093 52.7056C455.193 52.7056 453.421 53.9968 453.421 56.6107V66.559H449.757V42.4844H453.421V52.3976H453.495C454.65 50.5991 456.323 49.7138 458.458 49.7138C461.951 49.7138 464.086 52.4291 464.086 56.7437V66.559ZM483.981 59.1896H472.973C473.043 62.3144 475.112 64.078 478.174 64.078C479.802 64.078 481.3 63.8051 482.623 63.2977L483.194 65.8451C481.633 66.524 479.795 66.8634 477.656 66.8634C472.494 66.8634 469.438 63.6021 469.438 58.5458C469.438 53.4859 472.567 49.6823 477.243 49.6823C481.461 49.6823 484.107 52.8071 484.107 57.5275C484.131 58.0846 484.089 58.6425 483.981 59.1896ZM480.618 56.5757C480.618 54.0283 479.333 52.2297 476.988 52.2297C474.881 52.2297 473.215 54.0633 472.977 56.5757H480.618Z" fill="white"/>
</svg>
