<svg width="237" height="48" viewBox="0 0 237 48" fill="none" xmlns="http://www.w3.org/2000/svg">
<g clip-path="url(#clip0_336_1902)">
<path d="M48 24C48 10.7452 37.2548 0 24 0C10.7452 0 0 10.7452 0 24C0 35.9791 8.7765 45.908 20.25 47.7084V30.9375H14.1562V24H20.25V18.7125C20.25 12.6975 23.833 9.375 29.3152 9.375C31.941 9.375 34.6875 9.84375 34.6875 9.84375V15.75H31.6612C28.6798 15.75 27.75 17.6 27.75 19.4979V24H34.4062L33.3422 30.9375H27.75V47.7084C39.2236 45.908 48 35.9791 48 24Z" fill="#1877F2"/>
<path d="M33.3422 30.9375L34.4062 24H27.75V19.4979C27.75 17.6 28.6797 15.75 31.6612 15.75H34.6875V9.84375C34.6875 9.84375 31.9409 9.375 29.3152 9.375C23.833 9.375 20.25 12.6975 20.25 18.7125V24H14.1562V30.9375H20.25V47.7084C21.4718 47.9002 22.7242 48 24 48C25.2758 48 26.5281 47.9002 27.75 47.7084V30.9375H33.3422Z" fill="white"/>
</g>
<circle cx="87" cy="24" r="24" fill="black"/>
<path d="M88.7018 22.7376L97.4388 12.8H95.3687L87.779 21.4269L81.7215 12.8H74.7333L83.8955 25.8465L74.7333 36.2667H76.8034L84.8134 27.1543L91.2118 36.2667H98.2L88.7018 22.7376ZM85.8656 25.9611L84.9359 24.6611L77.55 14.3271H80.7301L86.6925 22.6701L87.6183 23.97L95.3677 34.8141H92.1876L85.8656 25.9611Z" fill="white"/>
<path d="M150 48C136.747 48 126 37.2528 126 24C126 10.7472 136.747 0 150 0C163.253 0 174 10.7472 174 24C174 37.2528 163.253 48 150 48Z" fill="#FF0000"/>
<path d="M165.274 16.2767C164.909 14.8943 163.829 13.8095 162.456 13.4399C159.97 12.7679 150.005 12.7679 150.005 12.7679C150.005 12.7679 140.035 12.7679 137.554 13.4399C136.181 13.8095 135.101 14.8943 134.736 16.2767C134.064 18.7775 134.064 23.9999 134.064 23.9999C134.064 23.9999 134.064 29.2223 134.731 31.7231C135.096 33.1055 136.176 34.1903 137.549 34.5599C140.035 35.2319 150 35.2319 150 35.2319C150 35.2319 159.97 35.2319 162.451 34.5599C163.824 34.1903 164.904 33.1055 165.269 31.7231C165.936 29.2223 165.936 23.9999 165.936 23.9999C165.936 23.9999 165.936 18.7775 165.274 16.2767ZM146.741 28.7375V19.2623L155.069 23.9999L146.741 28.7375Z" fill="white"/>
<g clip-path="url(#clip1_336_1902)">
<path d="M213 48C226.255 48 237 37.2548 237 24C237 10.7452 226.255 0 213 0C199.745 0 189 10.7452 189 24C189 37.2548 199.745 48 213 48Z" fill="url(#paint0_linear_336_1902)"/>
<path d="M224.681 13.8094L220.397 35.4187C220.397 35.4187 219.797 36.9187 218.147 36.1969L208.256 28.6125L204.656 26.8781L198.6 24.8437C198.6 24.8437 197.672 24.5156 197.578 23.7937C197.484 23.0719 198.628 22.6875 198.628 22.6875L222.703 13.2469C222.703 13.2375 224.681 12.3656 224.681 13.8094Z" fill="white"/>
<path d="M207.487 35.175C207.487 35.175 207.197 35.1468 206.841 34.0125C206.484 32.8781 204.656 26.8781 204.656 26.8781L219.197 17.6437C219.197 17.6437 220.041 17.1375 220.003 17.6437C220.003 17.6437 220.153 17.7375 219.703 18.15C219.253 18.5718 208.284 28.4343 208.284 28.4343" fill="#D2E4F0"/>
<path d="M212.044 31.5188L208.134 35.0906C208.134 35.0906 207.825 35.325 207.497 35.175L208.247 28.5469" fill="#B5CFE4"/>
</g>
<defs>
<linearGradient id="paint0_linear_336_1902" x1="213" y1="0" x2="213" y2="47.8249" gradientUnits="userSpaceOnUse">
<stop stop-color="#41BCE7"/>
<stop offset="1" stop-color="#22A6DC"/>
</linearGradient>
<clipPath id="clip0_336_1902">
<rect width="48" height="48" fill="white"/>
</clipPath>
<clipPath id="clip1_336_1902">
<rect width="48" height="48" fill="white" transform="translate(189)"/>
</clipPath>
</defs>
</svg>
