<svg width="56" height="56" viewBox="0 0 56 56" fill="none" xmlns="http://www.w3.org/2000/svg">
<path d="M26.623 38.9977C24.7034 35.7777 19.8472 31.5263 16.5145 29.5772C15.7822 29.1489 14.9883 28.8357 14.1608 28.6486C13.7944 26.8166 12.8625 22.0938 12.495 19.6799C11.8705 15.575 8.74124 14.1433 7.18374 14.2986C6.16984 14.396 5.73671 15.12 5.76187 15.7511C5.79577 16.5802 6.6128 36.0577 7.74155 37.9116C8.57062 39.2744 14.0919 45.4268 15.5859 47.0838L15.3541 53.0885C15.3481 53.2367 15.3718 53.3846 15.4238 53.5235C15.4759 53.6623 15.5552 53.7894 15.6572 53.8971C15.7591 54.0049 15.8816 54.0911 16.0174 54.1508C16.1531 54.2105 16.2995 54.2424 16.4478 54.2446L25.7884 54.3911H25.8125C25.959 54.3911 26.1041 54.3622 26.2394 54.3059C26.3747 54.2497 26.4976 54.1673 26.601 54.0634C26.7043 53.9595 26.7862 53.8363 26.8417 53.7007C26.8973 53.5651 26.9256 53.4199 26.9248 53.2733L26.9008 48.1447C27.172 47.1472 28.443 42.0536 26.623 38.9977ZM24.7187 47.6788C24.6883 47.7836 24.6728 47.8923 24.6728 48.0014L24.6914 52.1522L17.6269 52.0429L17.8281 46.7228C17.8391 46.4318 17.7359 46.148 17.5405 45.9321C14.6967 42.7886 10.2462 37.7519 9.66546 36.8058C9.07812 35.4375 8.30484 22.6702 8.0314 16.6699C8.81343 17.0133 9.98265 17.9736 10.2944 20.02C10.6367 22.2666 11.4319 26.3441 11.8551 28.4736C11.3815 28.5059 10.9151 28.6069 10.4705 28.7733C10.1802 28.8877 9.92233 29.0715 9.71958 29.3086C9.51683 29.5458 9.37536 29.8291 9.30756 30.1336C9.23976 30.4382 9.24771 30.7547 9.3307 31.0555C9.41369 31.3563 9.5692 31.6321 9.78359 31.8588C10.3206 32.4297 14.8148 38.1096 15.9556 39.8574C16.1224 40.0917 16.3734 40.2522 16.6561 40.3054C16.9387 40.3586 17.2309 40.3003 17.4715 40.1426C17.712 39.985 17.8821 39.7404 17.9462 39.46C18.0102 39.1797 17.9632 38.8854 17.815 38.6389C16.7464 36.9983 13.0189 32.2471 11.7447 30.7289C12.1578 30.6697 12.5768 30.6634 12.9916 30.7103C13.0531 30.7233 13.1157 30.7306 13.1786 30.7322C13.958 30.8405 14.7087 31.1006 15.388 31.4978C18.4187 33.2708 22.9906 37.2543 24.7067 40.1385C25.9405 42.2013 25.1311 46.281 24.7187 47.6788Z" fill="white"/>
<path d="M50.237 15.7555C50.2633 15.1244 49.8302 14.4004 48.8152 14.303C47.2839 14.1477 44.1306 15.5794 43.5039 19.6843C43.1364 22.0905 42.2045 26.8177 41.8381 28.653C41.0108 28.8388 40.217 29.1505 39.4844 29.5772C36.1517 31.5263 31.2955 35.7766 29.3759 38.9977C27.5559 42.0526 28.8291 47.1461 29.1036 48.1491L29.0795 53.2766C29.0787 53.4232 29.1068 53.5686 29.1623 53.7043C29.2178 53.84 29.2996 53.9634 29.403 54.0674C29.5064 54.1714 29.6293 54.2539 29.7647 54.3102C29.9001 54.3665 30.0452 54.3955 30.1919 54.3955H30.2094L39.5522 54.2501C39.7005 54.2478 39.8468 54.216 39.9826 54.1563C40.1184 54.0966 40.2409 54.0104 40.3428 53.9026C40.4448 53.7949 40.5241 53.6678 40.5762 53.5289C40.6282 53.3901 40.6519 53.2422 40.6459 53.094L40.4141 47.0893C41.9081 45.4322 47.4283 39.281 48.2584 37.9171C49.3861 36.0621 50.2031 16.5835 50.237 15.7555ZM46.3575 36.7555C45.7527 37.7476 41.3033 42.7854 38.4584 45.9299C38.2635 46.1455 38.1609 46.4291 38.173 46.7196L38.3786 52.0385L31.3119 52.1479L31.3327 47.9982C31.3339 47.887 31.318 47.7764 31.2856 47.6701C30.8689 46.2755 30.0552 42.2013 31.2856 40.1297C32.8377 37.5233 37.1919 33.4863 40.6055 31.4891C41.2851 31.0909 42.0367 30.8308 42.817 30.7235C42.8785 30.7217 42.9396 30.7144 42.9997 30.7016C43.4148 30.6558 43.8341 30.662 44.2477 30.7202C42.9844 32.2471 39.2547 36.9983 38.1828 38.639C38.096 38.7609 38.0347 38.8991 38.0026 39.0453C37.9704 39.1915 37.9681 39.3427 37.9958 39.4898C38.0235 39.6369 38.0806 39.7769 38.1637 39.9014C38.2467 40.0259 38.3541 40.1324 38.4793 40.2145C38.6045 40.2965 38.745 40.3524 38.8923 40.3789C39.0396 40.4054 39.1908 40.4018 39.3367 40.3685C39.4826 40.3351 39.6203 40.2727 39.7416 40.1849C39.8628 40.0971 39.965 39.9857 40.0422 39.8574C41.1917 38.1074 45.6794 32.4276 46.2175 31.8577C46.4314 31.6295 46.5863 31.3524 46.6687 31.0507C46.7511 30.7489 46.7584 30.4316 46.69 30.1263C46.6225 29.8233 46.4815 29.5416 46.2795 29.3058C46.0776 29.0701 45.8208 28.8876 45.5317 28.7744C45.086 28.6078 44.6185 28.5065 44.1437 28.4736C44.567 26.3452 45.3622 22.2666 45.7045 20.0201C46.0173 17.9736 47.1855 17.0133 47.9675 16.671C47.6952 22.6702 46.9219 35.431 46.3575 36.7588V36.7555Z" fill="white"/>
<path d="M29.1747 7.43096C29.1747 4.85408 30.3089 3.73518 31.2802 3.55908C31.601 3.4908 31.9358 3.54203 32.2216 3.70315C32.5074 3.86427 32.7245 4.12419 32.8322 4.43408C33.4075 5.96533 30.6928 7.93408 29.6975 8.50393C29.5128 8.60934 29.3681 8.77283 29.286 8.96896C29.2038 9.1651 29.1887 9.38289 29.2431 9.58847C29.2975 9.79405 29.4183 9.9759 29.5867 10.1057C29.7551 10.2356 29.9617 10.3061 30.1744 10.3064H36.0609C36.1903 10.3108 36.3192 10.2891 36.44 10.2426C36.5607 10.1961 36.6709 10.1258 36.764 10.0358C36.857 9.94585 36.931 9.83809 36.9815 9.71894C37.0321 9.5998 37.0581 9.4717 37.0581 9.34229C37.0581 9.21287 37.0321 9.08477 36.9815 8.96562C36.931 8.84648 36.857 8.73872 36.764 8.64876C36.6709 8.5588 36.5607 8.48848 36.44 8.44199C36.3192 8.3955 36.1903 8.37379 36.0609 8.37814H33.0466C34.2497 7.20127 35.315 5.55955 34.638 3.75705C34.3704 3.02511 33.851 2.4123 33.1729 2.02833C32.4947 1.64436 31.702 1.5143 30.9367 1.66143C29.9852 1.83424 28.9428 2.44018 28.2089 3.59955C27.4761 2.43908 26.4359 1.83314 25.4844 1.66033C24.7191 1.5132 23.9264 1.64326 23.2482 2.02724C22.5701 2.41121 22.0507 3.02402 21.7831 3.75596C21.1094 5.55846 22.1692 7.20017 23.3734 8.37705H20.358C20.2286 8.37269 20.0997 8.39441 19.979 8.4409C19.8582 8.48739 19.748 8.55771 19.6549 8.64767C19.5619 8.73763 19.4879 8.84539 19.4374 8.96453C19.3868 9.08368 19.3608 9.21177 19.3608 9.34119C19.3608 9.47061 19.3868 9.59871 19.4374 9.71785C19.4879 9.837 19.5619 9.94476 19.6549 10.0347C19.748 10.1247 19.8582 10.195 19.979 10.2415C20.0997 10.288 20.2286 10.3097 20.358 10.3053H26.25C26.463 10.3055 26.6701 10.2351 26.8389 10.1052C27.0077 9.97529 27.1288 9.79317 27.1832 9.58724C27.2377 9.38131 27.2224 9.16315 27.1399 8.96678C27.0573 8.77042 26.9121 8.60691 26.7269 8.50174C25.9153 8.04127 23.0081 6.00033 23.5922 4.43299C23.6978 4.12191 23.9144 3.86069 24.2005 3.69926C24.4867 3.53783 24.8223 3.48754 25.1431 3.55799C26.1155 3.73408 27.2486 4.85299 27.2486 7.42986C27.257 7.68024 27.3624 7.91754 27.5425 8.09167C27.7226 8.26581 27.9633 8.36315 28.2138 8.36315C28.4643 8.36315 28.7051 8.26581 28.8852 8.09167C29.0653 7.91754 29.1706 7.68024 29.1791 7.42986L29.1747 7.43096Z" fill="white"/>
<path d="M19.2839 26.8932C19.3547 27.7315 19.7366 28.5129 20.3546 29.0837C20.9726 29.6546 21.7819 29.9734 22.6231 29.9775H26.4742V11.4385H21.5524C21.089 11.4381 20.6306 11.5339 20.2062 11.7198C19.7817 11.9056 19.4005 12.1776 19.0865 12.5183C18.7726 12.8591 18.5328 13.2613 18.3822 13.6996C18.2317 14.1378 18.1738 14.6025 18.212 15.0643L19.2839 26.8932Z" fill="white"/>
<path d="M34.4433 11.4385H29.5312V29.9775H33.3823C34.2207 29.9726 35.027 29.6551 35.6435 29.087C36.2601 28.519 36.6426 27.7414 36.7161 26.9063L37.7825 15.0632C37.8202 14.6019 37.7618 14.1379 37.611 13.7004C37.4602 13.2629 37.2204 12.8614 36.9066 12.5213C36.5928 12.1812 36.2118 11.9098 35.7879 11.7244C35.3639 11.539 34.906 11.4435 34.4433 11.4439V11.4385Z" fill="white"/>
</svg>
