<svg width="620" height="184" viewBox="0 0 620 184" fill="none" xmlns="http://www.w3.org/2000/svg">
<rect width="620" height="184" rx="92" fill="black"/>
<path d="M526.667 161.259H93.3333C83.6267 161.259 76 153.633 76 143.926V39.9259C76 30.2192 83.6267 22.5925 93.3333 22.5925H526.667C536.373 22.5925 544 30.2192 544 39.9259V143.926C544 153.633 536.373 161.259 526.667 161.259Z" fill="black"/>
<path d="M240.32 57.9527C240.32 60.726 239.627 63.1527 237.893 64.886C235.813 66.966 233.387 68.006 230.267 68.006C227.147 68.006 224.72 66.966 222.64 64.886C220.56 62.806 219.52 60.3794 219.52 57.2594C219.52 54.1394 220.56 51.7127 222.64 49.6327C224.72 47.5527 227.147 46.5127 230.267 46.5127C231.653 46.5127 233.04 46.8594 234.427 47.5527C235.813 48.246 236.853 48.9394 237.547 49.9794L235.813 51.7127C234.427 49.9794 232.693 49.286 230.267 49.286C228.187 49.286 226.107 49.9794 224.72 51.7127C222.987 53.0994 222.293 55.1794 222.293 57.606C222.293 60.0327 222.987 62.1127 224.72 63.4994C226.453 64.886 228.187 65.926 230.267 65.926C232.693 65.926 234.427 65.2327 236.16 63.4994C237.2 62.4594 237.893 61.0727 237.893 59.3394H230.267V56.566H240.32V57.9527ZM256.267 49.286H246.907V55.8727H255.573V58.2994H246.907V64.886H256.267V67.6594H244.133V46.8594H256.267V49.286ZM267.707 67.6594H264.933V49.286H259.04V46.8594H273.6V49.286H267.707V67.6594ZM283.653 67.6594V46.8594H286.427V67.6594H283.653ZM298.213 67.6594H295.44V49.286H289.547V46.8594H303.76V49.286H297.867V67.6594H298.213ZM331.147 64.886C329.067 66.966 326.64 68.006 323.52 68.006C320.4 68.006 317.973 66.966 315.893 64.886C313.813 62.806 312.773 60.3794 312.773 57.2594C312.773 54.1394 313.813 51.7127 315.893 49.6327C317.973 47.5527 320.4 46.5127 323.52 46.5127C326.64 46.5127 329.067 47.5527 331.147 49.6327C333.227 51.7127 334.267 54.1394 334.267 57.2594C334.267 60.3794 333.227 62.806 331.147 64.886ZM317.973 63.1527C319.36 64.5394 321.44 65.5794 323.52 65.5794C325.6 65.5794 327.68 64.886 329.067 63.1527C330.453 61.766 331.493 59.686 331.493 57.2594C331.493 54.8327 330.8 52.7527 329.067 51.366C327.68 49.9794 325.6 48.9394 323.52 48.9394C321.44 48.9394 319.36 49.6327 317.973 51.366C316.587 52.7527 315.547 54.8327 315.547 57.2594C315.547 59.686 316.24 61.766 317.973 63.1527ZM338.08 67.6594V46.8594H341.2L351.253 63.1527V46.8594H354.027V67.6594H351.253L340.507 50.6727V67.6594H338.08Z" fill="white" stroke="white" stroke-width="1.18519" stroke-miterlimit="10"/>
<path d="M312.08 98.1659C303.76 98.1659 297.173 104.406 297.173 113.073C297.173 121.393 303.76 127.979 312.08 127.979C320.4 127.979 326.987 121.739 326.987 113.073C326.987 104.059 320.4 98.1659 312.08 98.1659ZM312.08 121.739C307.573 121.739 303.76 117.926 303.76 112.726C303.76 107.526 307.573 103.713 312.08 103.713C316.587 103.713 320.4 107.179 320.4 112.726C320.4 117.926 316.587 121.739 312.08 121.739ZM279.84 98.1659C271.52 98.1659 264.933 104.406 264.933 113.073C264.933 121.393 271.52 127.979 279.84 127.979C288.16 127.979 294.747 121.739 294.747 113.073C294.747 104.059 288.16 98.1659 279.84 98.1659ZM279.84 121.739C275.333 121.739 271.52 117.926 271.52 112.726C271.52 107.526 275.333 103.713 279.84 103.713C284.347 103.713 288.16 107.179 288.16 112.726C288.16 117.926 284.347 121.739 279.84 121.739ZM241.36 102.673V108.913H256.267C255.92 112.379 254.533 115.153 252.8 116.886C250.72 118.966 247.253 121.393 241.36 121.393C232 121.393 225.067 114.113 225.067 104.753C225.067 95.3926 232.347 88.1126 241.36 88.1126C246.213 88.1126 250.027 90.1926 252.8 92.6192L257.307 88.1126C253.493 84.6459 248.64 81.8726 241.707 81.8726C229.227 81.8726 218.48 92.2726 218.48 104.753C218.48 117.233 229.227 127.633 241.707 127.633C248.64 127.633 253.493 125.553 257.653 121.046C261.813 116.886 263.2 110.993 263.2 106.486C263.2 105.099 263.2 103.713 262.853 102.673H241.36ZM398.747 107.526C397.36 104.059 393.893 98.1659 386.267 98.1659C378.64 98.1659 372.4 104.059 372.4 113.073C372.4 121.393 378.64 127.979 386.96 127.979C393.547 127.979 397.707 123.819 399.093 121.393L394.24 117.926C392.507 120.353 390.427 122.086 386.96 122.086C383.493 122.086 381.413 120.699 379.68 117.579L399.44 109.259L398.747 107.526ZM378.64 112.379C378.64 106.833 383.147 103.713 386.267 103.713C388.693 103.713 391.12 105.099 391.813 106.833L378.64 112.379ZM362.347 126.593H368.933V83.2592H362.347V126.593ZM351.947 101.286C350.213 99.5526 347.44 97.8192 343.973 97.8192C336.693 97.8192 329.76 104.406 329.76 112.726C329.76 121.046 336.347 127.286 343.973 127.286C347.44 127.286 350.213 125.553 351.6 123.819H351.947V125.899C351.947 131.446 348.827 134.566 343.973 134.566C340.16 134.566 337.387 131.793 336.693 129.366L331.147 131.793C332.88 135.606 337.04 140.459 344.32 140.459C351.947 140.459 358.187 135.953 358.187 125.206V98.8592H351.947V101.286ZM344.32 121.739C339.813 121.739 336 117.926 336 112.726C336 107.526 339.813 103.713 344.32 103.713C348.827 103.713 352.293 107.526 352.293 112.726C352.293 117.926 348.827 121.739 344.32 121.739ZM428.907 83.2592H413.307V126.593H419.893V110.299H428.907C436.187 110.299 443.12 105.099 443.12 96.7792C443.12 88.4592 436.187 83.2592 428.907 83.2592ZM429.253 104.059H419.893V89.1526H429.253C434.107 89.1526 436.88 93.3126 436.88 96.4326C436.533 100.246 433.76 104.059 429.253 104.059ZM469.12 97.8192C464.267 97.8192 459.413 99.8992 457.68 104.406L463.573 106.833C464.96 104.406 467.04 103.713 469.467 103.713C472.933 103.713 476.053 105.793 476.4 109.259V109.606C475.36 108.913 472.587 107.873 469.813 107.873C463.573 107.873 457.333 111.339 457.333 117.579C457.333 123.473 462.533 127.286 468.08 127.286C472.587 127.286 474.667 125.206 476.4 123.126H476.747V126.593H482.987V109.953C482.293 102.326 476.4 97.8192 469.12 97.8192ZM468.427 121.739C466.347 121.739 463.227 120.699 463.227 117.926C463.227 114.459 467.04 113.419 470.16 113.419C472.933 113.419 474.32 114.113 476.053 114.806C475.36 118.966 471.893 121.739 468.427 121.739ZM504.827 98.8592L497.547 117.579H497.2L489.573 98.8592H482.64L494.08 125.206L487.493 139.766H494.08L511.76 98.8592H504.827ZM446.587 126.593H453.173V83.2592H446.587V126.593Z" fill="white"/>
<path d="M112.053 48.5928C111.013 49.6328 110.667 51.3661 110.667 53.4461V130.059C110.667 132.139 111.36 133.873 112.4 134.913L112.747 135.259L155.733 92.2728V91.5794L112.053 48.5928Z" fill="url(#paint0_linear_1259_1239)"/>
<path d="M169.6 106.833L155.387 92.6193V91.5793L169.6 77.366L169.947 77.7126L186.933 87.4193C191.787 90.1926 191.787 94.6993 186.933 97.4726L169.6 106.833Z" fill="url(#paint1_linear_1259_1239)"/>
<path d="M169.947 106.486L155.387 91.926L112.053 135.259C113.787 136.993 116.213 136.993 119.333 135.606L169.947 106.486Z" fill="url(#paint2_linear_1259_1239)"/>
<path d="M169.947 77.366L119.333 48.5927C116.213 46.8594 113.787 47.206 112.053 48.9394L155.387 91.926L169.947 77.366Z" fill="url(#paint3_linear_1259_1239)"/>
<path opacity="0.2" d="M169.6 106.139L119.333 134.566C116.56 136.299 114.133 135.953 112.4 134.566L112.053 134.913L112.4 135.259C114.133 136.646 116.56 136.993 119.333 135.259L169.6 106.139Z" fill="black"/>
<path opacity="0.12" d="M112.053 134.566C111.013 133.526 110.667 131.793 110.667 129.713V130.059C110.667 132.139 111.36 133.873 112.4 134.913V134.566H112.053ZM186.933 96.4327L169.6 106.139L169.947 106.486L186.933 96.7794C189.36 95.3927 190.4 93.6594 190.4 91.926C190.4 93.6594 189.013 95.046 186.933 96.4327Z" fill="black"/>
<path opacity="0.25" d="M119.333 48.9394L186.933 87.4194C189.013 88.806 190.4 90.1927 190.4 91.926C190.4 90.1927 189.36 88.4594 186.933 87.0727L119.333 48.5927C114.48 45.8194 110.667 47.8994 110.667 53.446V53.7927C110.667 48.5927 114.48 46.166 119.333 48.9394Z" fill="white"/>
<defs>
<linearGradient id="paint0_linear_1259_1239" x1="151.573" y1="52.7874" x2="93.3922" y2="110.965" gradientUnits="userSpaceOnUse">
<stop stop-color="#00A0FF"/>
<stop offset="0.007" stop-color="#00A1FF"/>
<stop offset="0.26" stop-color="#00BEFF"/>
<stop offset="0.512" stop-color="#00D2FF"/>
<stop offset="0.76" stop-color="#00DFFF"/>
<stop offset="1" stop-color="#00E3FF"/>
</linearGradient>
<linearGradient id="paint1_linear_1259_1239" x1="193.291" y1="91.9294" x2="109.408" y2="91.9294" gradientUnits="userSpaceOnUse">
<stop stop-color="#FFE000"/>
<stop offset="0.409" stop-color="#FFBD00"/>
<stop offset="0.775" stop-color="#FFA500"/>
<stop offset="1" stop-color="#FF9C00"/>
</linearGradient>
<linearGradient id="paint2_linear_1259_1239" x1="162.067" y1="99.8855" x2="83.1725" y2="178.78" gradientUnits="userSpaceOnUse">
<stop stop-color="#FF3A44"/>
<stop offset="1" stop-color="#C31162"/>
</linearGradient>
<linearGradient id="paint3_linear_1259_1239" x1="101.296" y1="23.2028" x2="136.528" y2="58.4346" gradientUnits="userSpaceOnUse">
<stop stop-color="#32A071"/>
<stop offset="0.069" stop-color="#2DA771"/>
<stop offset="0.476" stop-color="#15CF74"/>
<stop offset="0.801" stop-color="#06E775"/>
<stop offset="1" stop-color="#00F076"/>
</linearGradient>
</defs>
</svg>
