<svg width="48" height="48" viewBox="0 0 48 48" fill="none" xmlns="http://www.w3.org/2000/svg">
<path d="M24 48C10.7472 48 0 37.2528 0 24C0 10.7472 10.7472 0 24 0C37.2528 0 48 10.7472 48 24C48 37.2528 37.2528 48 24 48Z" fill="#FF0000"/>
<path d="M39.2736 16.2767C38.9088 14.8943 37.8288 13.8095 36.456 13.4399C33.9696 12.7679 24.0048 12.7679 24.0048 12.7679C24.0048 12.7679 14.0352 12.7679 11.5536 13.4399C10.1808 13.8095 9.10076 14.8943 8.73596 16.2767C8.06396 18.7775 8.06396 23.9999 8.06396 23.9999C8.06396 23.9999 8.06396 29.2223 8.73116 31.7231C9.09596 33.1055 10.176 34.1903 11.5488 34.5599C14.0352 35.2319 24 35.2319 24 35.2319C24 35.2319 33.9696 35.2319 36.4512 34.5599C37.824 34.1903 38.904 33.1055 39.2688 31.7231C39.936 29.2223 39.936 23.9999 39.936 23.9999C39.936 23.9999 39.936 18.7775 39.2736 16.2767ZM20.7408 28.7375V19.2623L29.0688 23.9999L20.7408 28.7375Z" fill="white"/>
</svg>
