<svg width="97" height="97" viewBox="0 0 97 97" fill="none" xmlns="http://www.w3.org/2000/svg">
<circle cx="48.5" cy="48.5" r="48" fill="white" stroke="#B4AFAF"/>
<g clip-path="url(#clip0_1686_1226)">
<path d="M29 32H73C73.5304 32 74.0391 32.2107 74.4142 32.5858C74.7893 32.9609 75 33.4696 75 34V62C75 64.1217 74.1571 66.1566 72.6569 67.6569C71.1566 69.1571 69.1217 70 67 70H35C32.8783 70 30.8434 69.1571 29.3431 67.6569C27.8429 66.1566 27 64.1217 27 62V34C27 33.4696 27.2107 32.9609 27.5858 32.5858C27.9609 32.2107 28.4696 32 29 32Z" fill="#F2F2F3"/>
<path d="M73 32H69C69.5304 32 70.0391 32.2107 70.4142 32.5858C70.7893 32.9609 71 33.4696 71 34V62C71 64.1217 70.1571 66.1566 68.6569 67.6569C67.1566 69.1571 65.1217 70 63 70H67C69.1217 70 71.1566 69.1571 72.6569 67.6569C74.1571 66.1566 75 64.1217 75 62V34C75 33.4696 74.7893 32.9609 74.4142 32.5858C74.0391 32.2107 73.5304 32 73 32Z" fill="#D8D8D8"/>
<path d="M39 41.9279V60.0719C39.0034 60.2332 39.0478 60.391 39.129 60.5304C39.2103 60.6697 39.3256 60.7861 39.4643 60.8686C39.603 60.951 39.7604 60.9968 39.9216 61.0016C40.0829 61.0064 40.2427 60.97 40.386 60.8959L58.486 51.8239C58.6407 51.7488 58.7711 51.6317 58.8623 51.486C58.9535 51.3403 59.0019 51.1718 59.0019 50.9999C59.0019 50.828 58.9535 50.6596 58.8623 50.5138C58.7711 50.3681 58.6407 50.251 58.486 50.1759L40.386 41.0999C40.2424 41.0257 40.0822 40.9894 39.9206 40.9943C39.7591 40.9993 39.6014 41.0454 39.4627 41.1283C39.3239 41.2112 39.2086 41.3282 39.1276 41.4681C39.0466 41.608 39.0027 41.7663 39 41.9279Z" fill="#40A5A8"/>
<path d="M53.47 47.6621L40.386 41.1001C40.2062 41.0093 40.0025 40.9771 39.8034 41.008C39.6043 41.0388 39.4199 41.1312 39.276 41.2721L49.608 51.6081L53.47 47.6621Z" fill="#5EB254"/>
<path d="M53.6 54.2749L49.793 50.2119L39.276 60.7239C39.4199 60.8648 39.6043 60.9572 39.8034 60.9881C40.0025 61.0189 40.2062 60.9867 40.386 60.8959L53.6 54.2749Z" fill="#DB4342"/>
<path d="M58.484 50.1759L52.716 47.2839L49 50.9999L52.716 54.7159L58.484 51.8239C58.6387 51.7488 58.7691 51.6317 58.8603 51.486C58.9515 51.3403 58.9999 51.1719 58.9999 50.9999C58.9999 50.828 58.9515 50.6596 58.8603 50.5138C58.7691 50.3681 58.6387 50.251 58.484 50.1759Z" fill="#F2DC36"/>
<path d="M41 36H43C43.5304 36 44.0391 35.7893 44.4142 35.4142C44.7893 35.0391 45 34.5304 45 34V28C45 27.4696 45.2107 26.9609 45.5858 26.5858C45.9609 26.2107 46.4696 26 47 26H53C53.5304 26 54.0391 26.2107 54.4142 26.5858C54.7893 26.9609 55 27.4696 55 28V34C55 34.5304 55.2107 35.0391 55.5858 35.4142C55.9609 35.7893 56.4696 36 57 36H59C59.5304 36 60.0391 35.7893 60.4142 35.4142C60.7893 35.0391 61 34.5304 61 34V26C61 24.9391 60.5786 23.9217 59.8284 23.1716C59.0783 22.4214 58.0609 22 57 22H43C41.9391 22 40.9217 22.4214 40.1716 23.1716C39.4214 23.9217 39 24.9391 39 26V34C39 34.5304 39.2107 35.0391 39.5858 35.4142C39.9609 35.7893 40.4696 36 41 36Z" fill="#5EB254"/>
<path d="M57 22H55C56.0609 22 57.0783 22.4214 57.8284 23.1716C58.5786 23.9217 59 24.9391 59 26V34C59 34.5304 58.7893 35.0391 58.4142 35.4142C58.0391 35.7893 57.5304 36 57 36H59C59.5304 36 60.0391 35.7893 60.4142 35.4142C60.7893 35.0391 61 34.5304 61 34V26C61 24.9391 60.5786 23.9217 59.8284 23.1716C59.0783 22.4214 58.0609 22 57 22Z" fill="#539649"/>
<path d="M43 28V34C42.9993 34.1195 42.9873 34.2387 42.964 34.356C42.8807 34.8165 42.6385 35.2332 42.2797 35.5336C41.9208 35.834 41.468 35.999 41 36H43C43.5304 36 44.0391 35.7893 44.4142 35.4142C44.7893 35.0391 45 34.5304 45 34V28C45 27.4696 45.2107 26.9609 45.5858 26.5858C45.9609 26.2107 46.4696 26 47 26H45C44.4696 26 43.9609 26.2107 43.5858 26.5858C43.2107 26.9609 43 27.4696 43 28Z" fill="#539649"/>
</g>
<defs>
<clipPath id="clip0_1686_1226">
<rect width="48" height="48" fill="white" transform="translate(27 22)"/>
</clipPath>
</defs>
</svg>
