<svg width="1102" height="65" viewBox="0 0 1102 65" fill="none" xmlns="http://www.w3.org/2000/svg">
<rect x="92.8184" width="1.42" height="64.2907" rx="0.71" fill="#4D0B0E"/>
<rect x="88.3984" y="27.0698" width="1.42" height="37.2209" rx="0.71" fill="#4D0B0E"/>
<rect x="83.9785" y="16.9186" width="1.42" height="47.3721" rx="0.71" fill="#4D0B0E"/>
<rect x="79.5586" width="1.42" height="64.2907" rx="0.71" fill="#4D0B0E"/>
<rect x="75.1387" y="13.5349" width="1.42" height="50.7558" rx="0.71" fill="#4D0B0E"/>
<rect x="70.7188" y="30.4535" width="1.42" height="33.8372" rx="0.71" fill="#4D0B0E"/>
<rect x="66.2988" y="6.76746" width="1.42" height="57.5233" rx="0.71" fill="#4D0B0E"/>
<rect x="61.8789" y="27.0698" width="1.42" height="37.2209" rx="0.71" fill="#4D0B0E"/>
<rect x="57.459" y="47.3721" width="1.42" height="16.9186" rx="0.71" fill="#4D0B0E"/>
<rect x="53.0391" y="27.0698" width="1.42" height="37.2209" rx="0.71" fill="#4D0B0E"/>
<rect x="48.6191" y="16.9186" width="1.42" height="47.3721" rx="0.71" fill="#4D0B0E"/>
<rect x="44.1992" y="33.8372" width="1.42" height="30.4535" rx="0.71" fill="#4D0B0E"/>
<rect x="39.7793" y="10.1511" width="1.42" height="54.1395" rx="0.71" fill="#4D0B0E"/>
<rect x="35.3594" y="30.4535" width="1.42" height="33.8372" rx="0.71" fill="#4D0B0E"/>
<rect x="30.9395" y="27.0698" width="1.42" height="37.2209" rx="0.71" fill="#4D0B0E"/>
<rect x="26.5195" width="1.42" height="64.2907" rx="0.71" fill="#4D0B0E"/>
<rect x="22.0996" y="33.8372" width="1.42" height="30.4535" rx="0.71" fill="#4D0B0E"/>
<rect x="17.6797" y="20.3024" width="1.42" height="43.9884" rx="0.71" fill="#4D0B0E"/>
<rect x="13.2598" y="47.3721" width="1.42" height="16.9186" rx="0.71" fill="#4D0B0E"/>
<rect x="8.83984" y="6.76746" width="1.42" height="57.5233" rx="0.71" fill="#4D0B0E"/>
<rect x="4.41992" y="27.0698" width="1.42" height="37.2209" rx="0.71" fill="#4D0B0E"/>
<rect y="16.9186" width="1.42" height="47.3721" rx="0.71" fill="#4D0B0E"/>
<rect x="190.818" width="1.42" height="64.2907" rx="0.71" fill="#4D0B0E"/>
<rect x="186.398" y="27.0698" width="1.42" height="37.2209" rx="0.71" fill="#4D0B0E"/>
<rect x="181.979" y="16.9186" width="1.42" height="47.3721" rx="0.71" fill="#4D0B0E"/>
<rect x="177.559" width="1.42" height="64.2907" rx="0.71" fill="#4D0B0E"/>
<rect x="173.139" y="13.5349" width="1.42" height="50.7558" rx="0.71" fill="#4D0B0E"/>
<rect x="168.719" y="30.4535" width="1.42" height="33.8372" rx="0.71" fill="#4D0B0E"/>
<rect x="164.299" y="6.76746" width="1.42" height="57.5233" rx="0.71" fill="#4D0B0E"/>
<rect x="159.879" y="27.0698" width="1.42" height="37.2209" rx="0.71" fill="#4D0B0E"/>
<rect x="155.459" y="47.3721" width="1.42" height="16.9186" rx="0.71" fill="#4D0B0E"/>
<rect x="151.039" y="27.0698" width="1.42" height="37.2209" rx="0.71" fill="#4D0B0E"/>
<rect x="146.619" y="16.9186" width="1.42" height="47.3721" rx="0.71" fill="#4D0B0E"/>
<rect x="142.199" y="33.8372" width="1.42" height="30.4535" rx="0.71" fill="#4D0B0E"/>
<rect x="137.779" y="10.1511" width="1.42" height="54.1395" rx="0.71" fill="#4D0B0E"/>
<rect x="133.359" y="30.4535" width="1.42" height="33.8372" rx="0.71" fill="#4D0B0E"/>
<rect x="128.939" y="27.0698" width="1.42" height="37.2209" rx="0.71" fill="#4D0B0E"/>
<rect x="124.52" width="1.42" height="64.2907" rx="0.71" fill="#4D0B0E"/>
<rect x="120.1" y="33.8372" width="1.42" height="30.4535" rx="0.71" fill="#4D0B0E"/>
<rect x="115.68" y="20.3024" width="1.42" height="43.9884" rx="0.71" fill="#4D0B0E"/>
<rect x="111.26" y="47.3721" width="1.42" height="16.9186" rx="0.71" fill="#4D0B0E"/>
<rect x="106.84" y="6.76746" width="1.42" height="57.5233" rx="0.71" fill="#4D0B0E"/>
<rect x="102.42" y="27.0698" width="1.42" height="37.2209" rx="0.71" fill="#4D0B0E"/>
<rect x="98" y="16.9186" width="1.42" height="47.3721" rx="0.71" fill="#4D0B0E"/>
<rect x="287.818" width="1.42" height="64.2907" rx="0.71" fill="#4D0B0E"/>
<rect x="283.398" y="27.0698" width="1.42" height="37.2209" rx="0.71" fill="#4D0B0E"/>
<rect x="278.979" y="16.9186" width="1.42" height="47.3721" rx="0.71" fill="#4D0B0E"/>
<rect x="274.559" width="1.42" height="64.2907" rx="0.71" fill="#4D0B0E"/>
<rect x="270.139" y="13.5349" width="1.42" height="50.7558" rx="0.71" fill="#4D0B0E"/>
<rect x="265.719" y="30.4535" width="1.42" height="33.8372" rx="0.71" fill="#4D0B0E"/>
<rect x="261.299" y="6.76746" width="1.42" height="57.5233" rx="0.71" fill="#4D0B0E"/>
<rect x="256.879" y="27.0698" width="1.42" height="37.2209" rx="0.71" fill="#4D0B0E"/>
<rect x="252.459" y="47.3721" width="1.42" height="16.9186" rx="0.71" fill="#4D0B0E"/>
<rect x="248.039" y="27.0698" width="1.42" height="37.2209" rx="0.71" fill="#4D0B0E"/>
<rect x="243.619" y="16.9186" width="1.42" height="47.3721" rx="0.71" fill="#4D0B0E"/>
<rect x="239.199" y="33.8372" width="1.42" height="30.4535" rx="0.71" fill="#4D0B0E"/>
<rect x="234.779" y="10.1511" width="1.42" height="54.1395" rx="0.71" fill="#4D0B0E"/>
<rect x="230.359" y="30.4535" width="1.42" height="33.8372" rx="0.71" fill="#4D0B0E"/>
<rect x="225.939" y="27.0698" width="1.42" height="37.2209" rx="0.71" fill="#4D0B0E"/>
<rect x="221.52" width="1.42" height="64.2907" rx="0.71" fill="#4D0B0E"/>
<rect x="217.1" y="33.8372" width="1.42" height="30.4535" rx="0.71" fill="#4D0B0E"/>
<rect x="212.68" y="20.3024" width="1.42" height="43.9884" rx="0.71" fill="#4D0B0E"/>
<rect x="208.26" y="47.3721" width="1.42" height="16.9186" rx="0.71" fill="#4D0B0E"/>
<rect x="203.84" y="6.76746" width="1.42" height="57.5233" rx="0.71" fill="#4D0B0E"/>
<rect x="199.42" y="27.0698" width="1.42" height="37.2209" rx="0.71" fill="#4D0B0E"/>
<rect x="195" y="16.9186" width="1.42" height="47.3721" rx="0.71" fill="#4D0B0E"/>
<rect x="384.818" width="1.42" height="64.2907" rx="0.71" fill="#4D0B0E"/>
<rect x="380.398" y="27.0698" width="1.42" height="37.2209" rx="0.71" fill="#4D0B0E"/>
<rect x="375.979" y="16.9186" width="1.42" height="47.3721" rx="0.71" fill="#4D0B0E"/>
<rect x="371.559" width="1.42" height="64.2907" rx="0.71" fill="#4D0B0E"/>
<rect x="367.139" y="13.5349" width="1.42" height="50.7558" rx="0.71" fill="#4D0B0E"/>
<rect x="362.719" y="30.4535" width="1.42" height="33.8372" rx="0.71" fill="#4D0B0E"/>
<rect x="358.299" y="6.76746" width="1.42" height="57.5233" rx="0.71" fill="#4D0B0E"/>
<rect x="353.879" y="27.0698" width="1.42" height="37.2209" rx="0.71" fill="#4D0B0E"/>
<rect x="349.459" y="47.3721" width="1.42" height="16.9186" rx="0.71" fill="#4D0B0E"/>
<rect x="345.039" y="27.0698" width="1.42" height="37.2209" rx="0.71" fill="#4D0B0E"/>
<rect x="340.619" y="16.9186" width="1.42" height="47.3721" rx="0.71" fill="#4D0B0E"/>
<rect x="336.199" y="33.8372" width="1.42" height="30.4535" rx="0.71" fill="#4D0B0E"/>
<rect x="331.779" y="10.1511" width="1.42" height="54.1395" rx="0.71" fill="#4D0B0E"/>
<rect x="327.359" y="30.4535" width="1.42" height="33.8372" rx="0.71" fill="#4D0B0E"/>
<rect x="322.939" y="27.0698" width="1.42" height="37.2209" rx="0.71" fill="#4D0B0E"/>
<rect x="318.52" width="1.42" height="64.2907" rx="0.71" fill="#4D0B0E"/>
<rect x="314.1" y="33.8372" width="1.42" height="30.4535" rx="0.71" fill="#4D0B0E"/>
<rect x="309.68" y="20.3024" width="1.42" height="43.9884" rx="0.71" fill="#4D0B0E"/>
<rect x="305.26" y="47.3721" width="1.42" height="16.9186" rx="0.71" fill="#4D0B0E"/>
<rect x="300.84" y="6.76746" width="1.42" height="57.5233" rx="0.71" fill="#4D0B0E"/>
<rect x="296.42" y="27.0698" width="1.42" height="37.2209" rx="0.71" fill="#4D0B0E"/>
<rect x="292" y="16.9186" width="1.42" height="47.3721" rx="0.71" fill="#4D0B0E"/>
<rect x="481.818" width="1.42" height="64.2907" rx="0.71" fill="#4D0B0E"/>
<rect x="477.398" y="27.0698" width="1.42" height="37.2209" rx="0.71" fill="#4D0B0E"/>
<rect x="472.979" y="16.9186" width="1.42" height="47.3721" rx="0.71" fill="#4D0B0E"/>
<rect x="468.559" width="1.42" height="64.2907" rx="0.71" fill="#4D0B0E"/>
<rect x="464.139" y="13.5349" width="1.42" height="50.7558" rx="0.71" fill="#4D0B0E"/>
<rect x="459.719" y="30.4535" width="1.42" height="33.8372" rx="0.71" fill="#4D0B0E"/>
<rect x="455.299" y="6.76746" width="1.42" height="57.5233" rx="0.71" fill="#4D0B0E"/>
<rect x="450.879" y="27.0698" width="1.42" height="37.2209" rx="0.71" fill="#4D0B0E"/>
<rect x="446.459" y="47.3721" width="1.42" height="16.9186" rx="0.71" fill="#4D0B0E"/>
<rect x="442.039" y="27.0698" width="1.42" height="37.2209" rx="0.71" fill="#4D0B0E"/>
<rect x="437.619" y="16.9186" width="1.42" height="47.3721" rx="0.71" fill="#4D0B0E"/>
<rect x="433.199" y="33.8372" width="1.42" height="30.4535" rx="0.71" fill="#4D0B0E"/>
<rect x="428.779" y="10.1511" width="1.42" height="54.1395" rx="0.71" fill="#4D0B0E"/>
<rect x="424.359" y="30.4535" width="1.42" height="33.8372" rx="0.71" fill="#4D0B0E"/>
<rect x="419.939" y="27.0698" width="1.42" height="37.2209" rx="0.71" fill="#4D0B0E"/>
<rect x="415.52" width="1.42" height="64.2907" rx="0.71" fill="#4D0B0E"/>
<rect x="411.1" y="33.8372" width="1.42" height="30.4535" rx="0.71" fill="#4D0B0E"/>
<rect x="406.68" y="20.3024" width="1.42" height="43.9884" rx="0.71" fill="#4D0B0E"/>
<rect x="402.26" y="47.3721" width="1.42" height="16.9186" rx="0.71" fill="#4D0B0E"/>
<rect x="397.84" y="6.76746" width="1.42" height="57.5233" rx="0.71" fill="#4D0B0E"/>
<rect x="393.42" y="27.0698" width="1.42" height="37.2209" rx="0.71" fill="#4D0B0E"/>
<rect x="389" y="16.9186" width="1.42" height="47.3721" rx="0.71" fill="#4D0B0E"/>
<rect x="578.818" width="1.42" height="64.2907" rx="0.71" fill="#4D0B0E"/>
<rect x="574.398" y="27.0698" width="1.42" height="37.2209" rx="0.71" fill="#4D0B0E"/>
<rect x="569.979" y="16.9186" width="1.42" height="47.3721" rx="0.71" fill="#4D0B0E"/>
<rect x="565.559" width="1.42" height="64.2907" rx="0.71" fill="#4D0B0E"/>
<rect x="561.139" y="13.5349" width="1.42" height="50.7558" rx="0.71" fill="#4D0B0E"/>
<rect x="556.719" y="30.4535" width="1.42" height="33.8372" rx="0.71" fill="#4D0B0E"/>
<rect x="552.299" y="6.76746" width="1.42" height="57.5233" rx="0.71" fill="#4D0B0E"/>
<rect x="547.879" y="27.0698" width="1.42" height="37.2209" rx="0.71" fill="#4D0B0E"/>
<rect x="543.459" y="47.3721" width="1.42" height="16.9186" rx="0.71" fill="#4D0B0E"/>
<rect x="539.039" y="27.0698" width="1.42" height="37.2209" rx="0.71" fill="#4D0B0E"/>
<rect x="534.619" y="16.9186" width="1.42" height="47.3721" rx="0.71" fill="#4D0B0E"/>
<rect x="530.199" y="33.8372" width="1.42" height="30.4535" rx="0.71" fill="#4D0B0E"/>
<rect x="525.779" y="10.1511" width="1.42" height="54.1395" rx="0.71" fill="#4D0B0E"/>
<rect x="521.359" y="30.4535" width="1.42" height="33.8372" rx="0.71" fill="#4D0B0E"/>
<rect x="516.939" y="27.0698" width="1.42" height="37.2209" rx="0.71" fill="#4D0B0E"/>
<rect x="512.52" width="1.42" height="64.2907" rx="0.71" fill="#4D0B0E"/>
<rect x="508.1" y="33.8372" width="1.42" height="30.4535" rx="0.71" fill="#4D0B0E"/>
<rect x="503.68" y="20.3024" width="1.42" height="43.9884" rx="0.71" fill="#4D0B0E"/>
<rect x="499.26" y="47.3721" width="1.42" height="16.9186" rx="0.71" fill="#4D0B0E"/>
<rect x="494.84" y="6.76746" width="1.42" height="57.5233" rx="0.71" fill="#4D0B0E"/>
<rect x="490.42" y="27.0698" width="1.42" height="37.2209" rx="0.71" fill="#4D0B0E"/>
<rect x="486" y="16.9186" width="1.42" height="47.3721" rx="0.71" fill="#4D0B0E"/>
<rect x="675.818" width="1.42" height="64.2907" rx="0.71" fill="#4D0B0E"/>
<rect x="671.398" y="27.0698" width="1.42" height="37.2209" rx="0.71" fill="#4D0B0E"/>
<rect x="666.979" y="16.9186" width="1.42" height="47.3721" rx="0.71" fill="#4D0B0E"/>
<rect x="662.559" width="1.42" height="64.2907" rx="0.71" fill="#4D0B0E"/>
<rect x="658.139" y="13.5349" width="1.42" height="50.7558" rx="0.71" fill="#4D0B0E"/>
<rect x="653.719" y="30.4535" width="1.42" height="33.8372" rx="0.71" fill="#4D0B0E"/>
<rect x="649.299" y="6.76746" width="1.42" height="57.5233" rx="0.71" fill="#4D0B0E"/>
<rect x="644.879" y="27.0698" width="1.42" height="37.2209" rx="0.71" fill="#4D0B0E"/>
<rect x="640.459" y="47.3721" width="1.42" height="16.9186" rx="0.71" fill="#4D0B0E"/>
<rect x="636.039" y="27.0698" width="1.42" height="37.2209" rx="0.71" fill="#4D0B0E"/>
<rect x="631.619" y="16.9186" width="1.42" height="47.3721" rx="0.71" fill="#4D0B0E"/>
<rect x="627.199" y="33.8372" width="1.42" height="30.4535" rx="0.71" fill="#4D0B0E"/>
<rect x="622.779" y="10.1511" width="1.42" height="54.1395" rx="0.71" fill="#4D0B0E"/>
<rect x="618.359" y="30.4535" width="1.42" height="33.8372" rx="0.71" fill="#4D0B0E"/>
<rect x="613.939" y="27.0698" width="1.42" height="37.2209" rx="0.71" fill="#4D0B0E"/>
<rect x="609.52" width="1.42" height="64.2907" rx="0.71" fill="#4D0B0E"/>
<rect x="605.1" y="33.8372" width="1.42" height="30.4535" rx="0.71" fill="#4D0B0E"/>
<rect x="600.68" y="20.3024" width="1.42" height="43.9884" rx="0.71" fill="#4D0B0E"/>
<rect x="596.26" y="47.3721" width="1.42" height="16.9186" rx="0.71" fill="#4D0B0E"/>
<rect x="591.84" y="6.76746" width="1.42" height="57.5233" rx="0.71" fill="#4D0B0E"/>
<rect x="587.42" y="27.0698" width="1.42" height="37.2209" rx="0.71" fill="#4D0B0E"/>
<rect x="583" y="16.9186" width="1.42" height="47.3721" rx="0.71" fill="#4D0B0E"/>
<rect x="772.818" width="1.42" height="64.2907" rx="0.71" fill="#4D0B0E"/>
<rect x="768.398" y="27.0698" width="1.42" height="37.2209" rx="0.71" fill="#4D0B0E"/>
<rect x="763.979" y="16.9186" width="1.42" height="47.3721" rx="0.71" fill="#4D0B0E"/>
<rect x="759.559" width="1.42" height="64.2907" rx="0.71" fill="#4D0B0E"/>
<rect x="755.139" y="13.5349" width="1.42" height="50.7558" rx="0.71" fill="#4D0B0E"/>
<rect x="750.719" y="30.4535" width="1.42" height="33.8372" rx="0.71" fill="#4D0B0E"/>
<rect x="746.299" y="6.76746" width="1.42" height="57.5233" rx="0.71" fill="#4D0B0E"/>
<rect x="741.879" y="27.0698" width="1.42" height="37.2209" rx="0.71" fill="#4D0B0E"/>
<rect x="737.459" y="47.3721" width="1.42" height="16.9186" rx="0.71" fill="#4D0B0E"/>
<rect x="733.039" y="27.0698" width="1.42" height="37.2209" rx="0.71" fill="#4D0B0E"/>
<rect x="728.619" y="16.9186" width="1.42" height="47.3721" rx="0.71" fill="#4D0B0E"/>
<rect x="724.199" y="33.8372" width="1.42" height="30.4535" rx="0.71" fill="#4D0B0E"/>
<rect x="719.779" y="10.1511" width="1.42" height="54.1395" rx="0.71" fill="#4D0B0E"/>
<rect x="715.359" y="30.4535" width="1.42" height="33.8372" rx="0.71" fill="#4D0B0E"/>
<rect x="710.939" y="27.0698" width="1.42" height="37.2209" rx="0.71" fill="#4D0B0E"/>
<rect x="706.52" width="1.42" height="64.2907" rx="0.71" fill="#4D0B0E"/>
<rect x="702.1" y="33.8372" width="1.42" height="30.4535" rx="0.71" fill="#4D0B0E"/>
<rect x="697.68" y="20.3024" width="1.42" height="43.9884" rx="0.71" fill="#4D0B0E"/>
<rect x="693.26" y="47.3721" width="1.42" height="16.9186" rx="0.71" fill="#4D0B0E"/>
<rect x="688.84" y="6.76746" width="1.42" height="57.5233" rx="0.71" fill="#4D0B0E"/>
<rect x="684.42" y="27.0698" width="1.42" height="37.2209" rx="0.71" fill="#4D0B0E"/>
<rect x="680" y="16.9186" width="1.42" height="47.3721" rx="0.71" fill="#4D0B0E"/>
<rect x="869.818" width="1.42" height="64.2907" rx="0.71" fill="#4D0B0E"/>
<rect x="865.398" y="27.0698" width="1.42" height="37.2209" rx="0.71" fill="#4D0B0E"/>
<rect x="860.979" y="16.9186" width="1.42" height="47.3721" rx="0.71" fill="#4D0B0E"/>
<rect x="856.559" width="1.42" height="64.2907" rx="0.71" fill="#4D0B0E"/>
<rect x="852.139" y="13.5349" width="1.42" height="50.7558" rx="0.71" fill="#4D0B0E"/>
<rect x="847.719" y="30.4535" width="1.42" height="33.8372" rx="0.71" fill="#4D0B0E"/>
<rect x="843.299" y="6.76746" width="1.42" height="57.5233" rx="0.71" fill="#4D0B0E"/>
<rect x="838.879" y="27.0698" width="1.42" height="37.2209" rx="0.71" fill="#4D0B0E"/>
<rect x="834.459" y="47.3721" width="1.42" height="16.9186" rx="0.71" fill="#4D0B0E"/>
<rect x="830.039" y="27.0698" width="1.42" height="37.2209" rx="0.71" fill="#4D0B0E"/>
<rect x="825.619" y="16.9186" width="1.42" height="47.3721" rx="0.71" fill="#4D0B0E"/>
<rect x="821.199" y="33.8372" width="1.42" height="30.4535" rx="0.71" fill="#4D0B0E"/>
<rect x="816.779" y="10.1511" width="1.42" height="54.1395" rx="0.71" fill="#4D0B0E"/>
<rect x="812.359" y="30.4535" width="1.42" height="33.8372" rx="0.71" fill="#4D0B0E"/>
<rect x="807.939" y="27.0698" width="1.42" height="37.2209" rx="0.71" fill="#4D0B0E"/>
<rect x="803.52" width="1.42" height="64.2907" rx="0.71" fill="#4D0B0E"/>
<rect x="799.1" y="33.8372" width="1.42" height="30.4535" rx="0.71" fill="#4D0B0E"/>
<rect x="794.68" y="20.3024" width="1.42" height="43.9884" rx="0.71" fill="#4D0B0E"/>
<rect x="790.26" y="47.3721" width="1.42" height="16.9186" rx="0.71" fill="#4D0B0E"/>
<rect x="785.84" y="6.76746" width="1.42" height="57.5233" rx="0.71" fill="#4D0B0E"/>
<rect x="781.42" y="27.0698" width="1.42" height="37.2209" rx="0.71" fill="#4D0B0E"/>
<rect x="777" y="16.9186" width="1.42" height="47.3721" rx="0.71" fill="#4D0B0E"/>
<rect x="966.818" width="1.42" height="64.2907" rx="0.71" fill="#4D0B0E"/>
<rect x="962.398" y="27.0698" width="1.42" height="37.2209" rx="0.71" fill="#4D0B0E"/>
<rect x="957.979" y="16.9186" width="1.42" height="47.3721" rx="0.71" fill="#4D0B0E"/>
<rect x="953.559" width="1.42" height="64.2907" rx="0.71" fill="#4D0B0E"/>
<rect x="949.139" y="13.5349" width="1.42" height="50.7558" rx="0.71" fill="#4D0B0E"/>
<rect x="944.719" y="30.4535" width="1.42" height="33.8372" rx="0.71" fill="#4D0B0E"/>
<rect x="940.299" y="6.76746" width="1.42" height="57.5233" rx="0.71" fill="#4D0B0E"/>
<rect x="935.879" y="27.0698" width="1.42" height="37.2209" rx="0.71" fill="#4D0B0E"/>
<rect x="931.459" y="47.3721" width="1.42" height="16.9186" rx="0.71" fill="#4D0B0E"/>
<rect x="927.039" y="27.0698" width="1.42" height="37.2209" rx="0.71" fill="#4D0B0E"/>
<rect x="922.619" y="16.9186" width="1.42" height="47.3721" rx="0.71" fill="#4D0B0E"/>
<rect x="918.199" y="33.8372" width="1.42" height="30.4535" rx="0.71" fill="#4D0B0E"/>
<rect x="913.779" y="10.1511" width="1.42" height="54.1395" rx="0.71" fill="#4D0B0E"/>
<rect x="909.359" y="30.4535" width="1.42" height="33.8372" rx="0.71" fill="#4D0B0E"/>
<rect x="904.939" y="27.0698" width="1.42" height="37.2209" rx="0.71" fill="#4D0B0E"/>
<rect x="900.52" width="1.42" height="64.2907" rx="0.71" fill="#4D0B0E"/>
<rect x="896.1" y="33.8372" width="1.42" height="30.4535" rx="0.71" fill="#4D0B0E"/>
<rect x="891.68" y="20.3024" width="1.42" height="43.9884" rx="0.71" fill="#4D0B0E"/>
<rect x="887.26" y="47.3721" width="1.42" height="16.9186" rx="0.71" fill="#4D0B0E"/>
<rect x="882.84" y="6.76746" width="1.42" height="57.5233" rx="0.71" fill="#4D0B0E"/>
<rect x="878.42" y="27.0698" width="1.42" height="37.2209" rx="0.71" fill="#4D0B0E"/>
<rect x="874" y="16.9186" width="1.42" height="47.3721" rx="0.71" fill="#4D0B0E"/>
<rect x="1024.82" width="1.42" height="64.2907" rx="0.71" fill="#4D0B0E"/>
<rect x="1020.4" y="27.0698" width="1.42" height="37.2209" rx="0.71" fill="#4D0B0E"/>
<rect x="1015.98" y="16.9186" width="1.42" height="47.3721" rx="0.71" fill="#4D0B0E"/>
<rect x="1011.56" width="1.42" height="64.2907" rx="0.71" fill="#4D0B0E"/>
<rect x="1007.14" y="13.5349" width="1.42" height="50.7558" rx="0.71" fill="#4D0B0E"/>
<rect x="1002.72" y="30.4535" width="1.42" height="33.8372" rx="0.71" fill="#4D0B0E"/>
<rect x="998.299" y="6.76746" width="1.42" height="57.5233" rx="0.71" fill="#4D0B0E"/>
<rect x="993.879" y="27.0698" width="1.42" height="37.2209" rx="0.71" fill="#4D0B0E"/>
<rect x="989.459" y="47.3721" width="1.42" height="16.9186" rx="0.71" fill="#4D0B0E"/>
<rect x="985.039" y="27.0698" width="1.42" height="37.2209" rx="0.71" fill="#4D0B0E"/>
<rect x="980.619" y="16.9186" width="1.42" height="47.3721" rx="0.71" fill="#4D0B0E"/>
<rect x="976.199" y="33.8372" width="1.42" height="30.4535" rx="0.71" fill="#4D0B0E"/>
<rect x="971.779" y="10.1511" width="1.42" height="54.1395" rx="0.71" fill="#4D0B0E"/>
<rect x="1083.04" width="1.42" height="64.2907" rx="0.71" fill="#4D0B0E"/>
<rect x="1091.42" width="1.42" height="64.2907" rx="0.71" fill="#4D0B0E"/>
<rect x="1099.8" width="1.42" height="64.2907" rx="0.71" fill="#4D0B0E"/>
<rect x="1078.62" y="27.0698" width="1.42" height="37.2209" rx="0.71" fill="#4D0B0E"/>
<rect x="1087" y="27.0698" width="1.42" height="37.2209" rx="0.71" fill="#4D0B0E"/>
<rect x="1095.38" y="27.0698" width="1.42" height="37.2209" rx="0.71" fill="#4D0B0E"/>
<rect x="1074.2" y="16.9186" width="1.42" height="47.3721" rx="0.71" fill="#4D0B0E"/>
<rect x="1069.78" width="1.42" height="64.2907" rx="0.71" fill="#4D0B0E"/>
<rect x="1065.36" y="13.5349" width="1.42" height="50.7558" rx="0.71" fill="#4D0B0E"/>
<rect x="1060.94" y="30.4535" width="1.42" height="33.8372" rx="0.71" fill="#4D0B0E"/>
<rect x="1056.52" y="6.76746" width="1.42" height="57.5233" rx="0.71" fill="#4D0B0E"/>
<rect x="1052.1" y="27.0698" width="1.42" height="37.2209" rx="0.71" fill="#4D0B0E"/>
<rect x="1047.68" y="47.3721" width="1.42" height="16.9186" rx="0.71" fill="#4D0B0E"/>
<rect x="1043.26" y="27.0698" width="1.42" height="37.2209" rx="0.71" fill="#4D0B0E"/>
<rect x="1038.84" y="16.9186" width="1.42" height="47.3721" rx="0.71" fill="#4D0B0E"/>
<rect x="1034.42" y="33.8372" width="1.42" height="30.4535" rx="0.71" fill="#4D0B0E"/>
<rect x="1030" y="10.1511" width="1.42" height="54.1395" rx="0.71" fill="#4D0B0E"/>
</svg>
