<svg width="48" height="48" viewBox="0 0 48 48" fill="none" xmlns="http://www.w3.org/2000/svg">
<g clip-path="url(#clip0_1281_390)">
<path d="M24 48C10.7472 48 0 37.2528 0 24C0 10.7472 10.7472 0 24 0C37.2528 0 48 10.7472 48 24C48 37.2528 37.2528 48 24 48Z" fill="#25D366"/>
<path fill-rule="evenodd" clip-rule="evenodd" d="M35.2272 12.8256C32.2512 9.84476 28.2864 8.20316 24.0672 8.19836C15.3744 8.19836 8.29439 15.2736 8.29439 23.9712C8.29439 26.7504 9.01919 29.4672 10.4016 31.8576L8.16479 40.032L16.5264 37.8384C18.8304 39.096 21.4224 39.7584 24.0624 39.7584H24.0672C32.76 39.7584 39.8352 32.6832 39.84 23.9856C39.8448 19.7712 38.208 15.8064 35.2272 12.8256ZM24.072 37.0944H24.0672C21.7152 37.0944 19.4064 36.4608 17.3952 35.2656L16.9152 34.9824L11.952 36.2832L13.2768 31.4448L12.9648 30.9504C11.6544 28.8624 10.9584 26.4528 10.9584 23.9712C10.9632 16.7424 16.8432 10.8624 24.0768 10.8624C27.5808 10.8624 30.8688 12.2304 33.3456 14.7072C35.8224 17.184 37.1856 20.4816 37.1808 23.9808C37.1808 31.2144 31.296 37.0944 24.072 37.0944ZM31.2624 27.2736C30.8688 27.0768 28.9296 26.1216 28.5696 25.992C28.2096 25.8624 27.9456 25.7952 27.6816 26.1888C27.4176 26.5824 26.664 27.4704 26.4336 27.7344C26.2032 27.9984 25.9728 28.032 25.5792 27.8352C25.1856 27.6384 23.9136 27.2208 22.4112 25.8768C21.24 24.8304 20.448 23.5392 20.2176 23.1456C19.9872 22.752 20.1936 22.536 20.3904 22.3392C20.568 22.1616 20.784 21.8784 20.9808 21.648C21.1776 21.4176 21.2448 21.2544 21.3744 20.9904C21.504 20.7264 21.4416 20.496 21.3408 20.2992C21.24 20.1024 20.4528 18.1632 20.1264 17.3712C19.8048 16.6032 19.4832 16.7088 19.2384 16.6944C19.008 16.6848 18.744 16.68 18.4848 16.68C18.2208 16.68 17.7936 16.7808 17.4336 17.1744C17.0736 17.568 16.056 18.5232 16.056 20.4624C16.056 22.4016 17.4672 24.2784 17.664 24.5376C17.8608 24.8016 20.4432 28.7808 24.3984 30.4896C25.3392 30.8976 26.0736 31.1376 26.6448 31.32C27.5904 31.6224 28.4496 31.5792 29.1264 31.4784C29.8848 31.3632 31.4592 30.5232 31.7856 29.6064C32.112 28.6848 32.112 27.8976 32.016 27.7344C31.92 27.5712 31.656 27.4752 31.2624 27.2736Z" fill="white"/>
</g>
<defs>
<clipPath id="clip0_1281_390">
<rect width="48" height="48" fill="white"/>
</clipPath>
</defs>
</svg>
